<?xml version="1.0" standalone="no"?>
<!DOCTYPE svg PUBLIC "-//W3C//DTD SVG 20010904//EN"
 "http://www.w3.org/TR/2001/REC-SVG-20010904/DTD/svg10.dtd">
<svg version="1.0" xmlns="http://www.w3.org/2000/svg"
 width="1266.000000pt" height="487.000000pt" viewBox="0 0 1266.000000 487.000000"
 preserveAspectRatio="xMidYMid meet">

<g transform="translate(0.000000,487.000000) scale(0.100000,-0.100000)"
fill="#000000" stroke="none">
<path d="M0 2435 l0 -2435 6330 0 6330 0 0 2435 0 2435 -6330 0 -6330 0 0
-2435z m5744 2181 c21 -33 50 -139 86 -326 17 -85 34 -157 38 -160 5 -3 14
-25 21 -50 16 -58 37 -104 54 -118 14 -12 54 -20 105 -21 23 -1 32 -6 33 -18
0 -15 2 -15 9 2 8 19 9 19 9 1 1 -11 4 -16 8 -12 5 4 13 -11 18 -35 10 -41 12
-42 80 -64 39 -12 101 -36 138 -53 38 -18 78 -32 89 -32 37 0 135 58 238 139
55 44 124 97 154 118 31 21 59 50 65 66 5 15 17 27 25 27 9 0 16 4 16 8 0 13
56 42 81 42 14 0 71 37 141 90 103 79 148 105 148 84 0 -9 -60 -126 -71 -140
-6 -7 -12 -22 -14 -34 -2 -13 -44 -82 -92 -154 -48 -72 -115 -178 -149 -236
-34 -58 -73 -116 -87 -130 -31 -32 -58 -85 -64 -127 -4 -32 -4 -33 31 -33 l36
0 0 -59 c0 -43 4 -60 15 -65 8 -3 15 -13 15 -21 0 -9 5 -13 10 -10 6 4 10 -5
10 -19 0 -15 5 -25 12 -24 6 2 17 -7 23 -20 7 -12 21 -33 32 -45 10 -12 30
-45 44 -74 39 -84 52 -88 319 -88 124 0 235 -4 248 -8 51 -19 16 -59 -151
-170 -59 -40 -100 -73 -92 -75 8 -2 15 -6 15 -8 0 -9 -28 -34 -37 -34 -5 0
-17 -19 -28 -42 -16 -36 -16 -47 -6 -89 18 -71 22 -341 6 -418 -7 -35 -11 -70
-8 -77 3 -7 -8 -15 -26 -19 -17 -4 -31 -11 -31 -15 0 -9 126 -114 145 -121 6
-2 59 -37 118 -78 77 -53 107 -80 108 -95 0 -20 1 -20 11 1 15 31 31 29 63 -8
29 -36 28 -49 -5 -66 -31 -15 -50 -6 -51 26 0 14 -3 20 -6 13 -2 -6 -9 -10
-14 -6 -5 3 -9 1 -9 -4 0 -4 -109 -8 -243 -8 -275 1 -256 7 -313 -89 -49 -81
-57 -112 -38 -151 20 -43 59 -84 79 -84 8 0 15 -4 15 -9 0 -14 82 -102 305
-329 116 -117 215 -223 222 -235 13 -24 17 -60 7 -70 -9 -9 -77 30 -254 148
-282 186 -465 295 -498 295 -5 0 -13 11 -16 24 -7 27 -50 40 -79 24 -15 -8
-18 -17 -12 -46 7 -43 20 -86 45 -157 35 -98 44 -118 48 -106 6 19 29 -19 37
-62 4 -20 11 -37 16 -37 5 0 9 -8 9 -19 0 -10 6 -37 14 -59 l14 -40 -41 -5
c-26 -2 -46 1 -52 8 -5 6 -30 24 -55 40 -25 15 -47 31 -50 34 -3 4 -34 29 -70
56 -36 27 -67 52 -70 55 -3 3 -21 17 -40 30 -19 13 -37 27 -40 30 -20 24 -122
42 -146 26 -10 -6 -50 -25 -89 -40 -38 -15 -92 -37 -118 -47 -26 -11 -52 -17
-57 -14 -5 3 -15 -16 -23 -42 -13 -45 -17 -49 -58 -59 -27 -6 -38 -13 -29 -17
8 -3 -8 -6 -37 -6 -43 -1 -56 -6 -81 -31 -34 -34 -45 -62 -67 -175 -31 -166
-37 -192 -57 -284 -32 -140 -50 -185 -76 -189 -18 -3 -26 5 -41 42 -20 46 -59
206 -86 356 -32 176 -46 230 -60 230 -8 0 -22 13 -31 29 -15 25 -28 32 -81 42
-58 12 -63 15 -63 39 0 31 -17 51 -36 43 -8 -3 -14 0 -14 6 0 6 -10 11 -22 11
-27 0 -177 55 -243 89 -63 33 -101 28 -183 -26 -74 -48 -262 -202 -269 -220
-3 -7 -10 -13 -17 -13 -12 -1 -50 -29 -272 -199 -81 -63 -156 -116 -166 -119
-38 -10 -4 67 105 235 26 39 47 75 47 78 0 4 38 65 85 136 47 71 85 132 85
136 0 3 6 14 14 22 23 26 94 174 96 201 3 40 1 64 -7 57 -6 -6 -17 8 -55 68
-7 11 -21 26 -30 33 -25 19 -22 29 9 37 24 6 26 8 13 18 -18 15 -87 117 -115
172 -65 128 -69 129 -330 126 -262 -3 -268 -4 -277 -16 -5 -6 -8 -5 -8 3 0 6
-7 12 -15 12 -28 0 -15 34 27 71 23 21 45 36 50 32 5 -3 22 6 36 19 15 14 34
28 42 32 37 16 177 116 229 164 38 34 42 42 28 48 -12 4 -16 13 -11 26 3 10 1
25 -5 32 -16 19 -18 377 -2 447 11 51 10 60 -7 88 -10 16 -30 40 -45 51 -15
12 -27 27 -27 35 0 7 -30 32 -67 56 -38 24 -88 58 -112 76 -25 19 -49 32 -55
30 -6 -2 -21 7 -33 20 -13 13 -23 21 -23 17 0 -3 -9 4 -19 17 -18 22 -18 26
-4 41 8 10 18 17 22 16 3 0 8 1 11 2 18 6 40 7 40 1 0 -5 87 -11 193 -15 236
-9 283 -1 327 52 16 20 30 42 30 49 0 7 8 16 17 22 11 6 17 21 17 44 0 52 -56
119 -332 398 -208 210 -290 303 -292 330 0 10 54 3 80 -11 14 -7 75 -45 135
-85 355 -232 496 -315 537 -315 10 0 18 -5 18 -11 0 -5 4 -8 9 -5 4 3 16 -3
26 -14 19 -21 56 -23 48 -3 -3 7 0 13 6 13 14 0 14 43 1 95 -25 97 -43 145
-53 145 -15 1 -97 244 -97 287 0 17 4 34 10 38 15 9 77 -21 85 -42 3 -10 40
-43 82 -73 42 -30 86 -63 97 -73 81 -67 194 -137 224 -137 5 0 42 14 83 31 94
39 209 79 209 72 0 -3 7 0 15 7 8 6 19 9 24 6 12 -8 31 25 31 53 0 20 5 22 91
36 28 5 40 15 60 48 14 23 31 64 38 92 7 27 16 54 21 60 4 5 22 80 39 165 51
250 79 340 107 340 6 0 19 -11 28 -24z m1163 -1148 c-3 -8 -6 -5 -6 6 -1 11 2
17 5 13 3 -3 4 -12 1 -19z m806 -426 c16 -4 6 -46 -17 -66 -38 -34 -46 -31
-46 23 0 46 1 48 28 46 15 -1 30 -3 35 -3z m-828 -2333 c11 -17 2 -18 -19 -3
-17 12 -17 14 -4 14 9 0 20 -5 23 -11z m-1145 -679 c0 -5 -9 -10 -20 -10 -11
0 -20 5 -20 10 0 6 9 10 20 10 11 0 20 -4 20 -10z"/>
<path d="M4600 1269 c0 -11 4 -18 10 -14 5 3 7 12 3 20 -7 21 -13 19 -13 -6z"/>
</g>
</svg>
