<?xml version="1.0" standalone="no"?>
<!DOCTYPE svg PUBLIC "-//W3C//DTD SVG 20010904//EN"
 "http://www.w3.org/TR/2001/REC-SVG-20010904/DTD/svg10.dtd">
<svg version="1.0" xmlns="http://www.w3.org/2000/svg"
 width="900.000000pt" height="900.000000pt" viewBox="0 0 900.000000 900.000000"
 preserveAspectRatio="xMidYMid meet">

<g transform="translate(0.000000,900.000000) scale(0.100000,-0.100000)"
fill="#000000" stroke="none">
<path d="M1616 8045 c-15 -8 -42 -15 -60 -15 -17 0 -46 -9 -64 -20 -18 -11
-46 -20 -62 -20 -16 0 -35 -6 -42 -14 -8 -7 -28 -17 -45 -20 -18 -4 -37 -14
-44 -22 -6 -8 -19 -14 -29 -14 -9 0 -29 -9 -43 -20 -14 -11 -32 -20 -40 -20
-9 0 -19 -5 -22 -11 -4 -5 -18 -15 -32 -20 -46 -17 -188 -117 -256 -179 -75
-69 -157 -173 -157 -200 0 -10 -7 -23 -15 -30 -21 -17 -21 -143 0 -160 8 -7
15 -18 15 -24 0 -12 67 -84 116 -126 51 -44 204 -142 289 -185 17 -9 62 -33
100 -55 39 -21 115 -62 170 -90 55 -28 132 -69 170 -90 39 -21 99 -53 135 -72
117 -61 263 -140 313 -170 26 -15 50 -28 53 -28 5 0 133 -72 214 -120 139 -82
171 -100 179 -100 5 0 11 -4 13 -8 2 -5 29 -24 62 -43 166 -97 263 -157 318
-196 26 -18 50 -33 53 -33 4 0 32 -17 63 -37 32 -21 65 -42 74 -48 9 -5 56
-37 105 -70 48 -33 92 -62 98 -64 5 -2 37 -23 70 -46 33 -23 98 -68 145 -100
170 -117 250 -178 250 -190 0 -7 -30 -39 -67 -71 -37 -33 -85 -75 -108 -95
-22 -19 -52 -44 -67 -56 -15 -11 -60 -50 -100 -86 -40 -35 -89 -78 -108 -93
-19 -16 -51 -43 -70 -60 -594 -528 -1042 -979 -1330 -1339 -36 -44 -67 -82
-71 -85 -28 -22 -349 -479 -349 -498 0 -3 -6 -13 -14 -21 -32 -36 -176 -320
-216 -426 -12 -33 -28 -73 -36 -90 -7 -16 -16 -43 -20 -60 -3 -16 -20 -70 -36
-119 -66 -198 -85 -470 -49 -680 23 -128 36 -173 89 -310 40 -101 54 -126 134
-234 74 -101 115 -141 213 -208 206 -139 479 -140 692 -1 122 78 243 226 320
389 101 212 132 389 132 758 1 273 9 315 87 441 31 51 60 96 64 99 3 3 25 37
48 75 23 39 58 90 77 115 18 25 34 50 34 56 1 6 10 19 21 29 11 10 20 22 20
27 0 4 15 30 33 56 19 26 62 90 97 142 35 52 66 97 70 100 5 5 97 137 115 168
6 9 26 37 45 63 19 26 51 71 70 99 19 28 51 73 71 98 19 26 38 54 41 62 3 8
29 43 57 78 28 34 51 65 51 68 0 4 24 37 53 73 29 36 74 95 100 131 71 98 286
365 348 431 19 20 57 63 84 95 80 94 218 224 243 231 42 10 71 -12 352 -265
319 -289 715 -694 945 -967 28 -32 66 -77 86 -100 36 -39 343 -428 407 -515
158 -213 262 -367 447 -660 26 -41 58 -91 70 -110 41 -63 79 -124 95 -153 19
-35 115 -184 276 -427 176 -266 202 -285 236 -175 29 92 15 264 -36 455 -52
195 -58 215 -67 225 -5 5 -9 16 -9 24 0 15 -44 133 -60 163 -6 10 -10 23 -10
29 0 7 -8 30 -19 53 -10 23 -29 66 -41 96 -51 124 -286 605 -342 700 -12 19
-31 53 -42 75 -27 48 -154 265 -178 303 -10 15 -22 36 -28 47 -5 11 -21 38
-35 60 -14 22 -32 54 -40 70 -8 17 -51 86 -96 155 -44 69 -84 134 -90 145 -5
11 -26 45 -47 76 -20 31 -61 94 -90 140 -29 46 -85 129 -123 184 -39 55 -81
116 -94 135 -41 60 -87 124 -180 250 -49 67 -97 132 -105 144 -17 25 -72 97
-215 281 -127 164 -202 269 -217 301 -12 25 -8 30 82 116 52 49 122 114 155
145 33 30 80 74 105 96 118 110 465 413 595 522 33 28 66 57 75 66 26 28 522
421 624 494 119 86 237 165 247 165 5 0 9 4 9 8 0 7 36 31 148 97 9 6 37 24
62 40 25 16 53 34 62 40 167 98 249 145 258 145 5 0 10 3 10 8 0 4 26 20 58
37 31 16 64 35 72 41 8 7 56 33 105 59 50 26 108 57 130 69 22 12 72 39 110
60 56 30 223 126 333 191 119 70 158 120 113 145 -23 12 -380 13 -456 1 -173
-27 -343 -70 -525 -133 -47 -16 -101 -34 -120 -40 -19 -6 -44 -17 -55 -24 -11
-8 -26 -14 -33 -14 -8 0 -30 -7 -50 -16 -21 -9 -57 -25 -82 -36 -25 -11 -63
-28 -85 -38 -22 -10 -76 -35 -120 -55 -97 -45 -158 -75 -250 -124 -38 -21
-104 -55 -145 -77 -69 -37 -349 -198 -405 -234 -13 -8 -57 -35 -97 -59 -40
-24 -89 -54 -108 -66 -19 -12 -82 -53 -140 -90 -196 -126 -516 -346 -727 -498
-39 -29 -123 -89 -185 -134 -62 -45 -122 -89 -133 -97 -81 -65 -229 -167 -250
-172 -24 -6 -50 17 -278 249 -238 240 -477 464 -667 622 -46 39 -91 77 -100
85 -49 47 -398 313 -500 382 -14 10 -44 31 -68 48 -23 16 -47 30 -52 30 -4 0
-10 3 -12 8 -1 4 -34 27 -73 51 -108 68 -119 75 -140 88 -11 7 -33 20 -50 28
-16 9 -48 26 -70 39 -22 13 -78 42 -125 66 -47 23 -92 46 -100 51 -8 5 -26 14
-40 19 -14 6 -32 15 -40 20 -8 6 -22 13 -30 16 -8 3 -28 12 -45 19 -67 32
-263 95 -294 95 -14 1 -37 7 -51 15 -36 20 -225 20 -264 0z m279 -39 c11 -7
40 -17 65 -21 25 -4 54 -14 65 -21 11 -8 31 -14 46 -14 14 0 38 -9 52 -20 14
-11 33 -20 44 -20 10 0 29 -9 43 -20 14 -11 33 -20 43 -20 11 0 30 -9 44 -20
14 -11 31 -20 38 -20 7 0 18 -6 24 -14 7 -8 25 -18 41 -21 16 -3 34 -13 41
-21 6 -8 20 -14 30 -14 10 0 23 -9 29 -20 6 -11 19 -20 28 -20 10 0 25 -9 35
-20 9 -11 26 -20 37 -20 13 0 20 -7 20 -20 0 -15 7 -20 28 -20 16 0 32 -8 40
-20 7 -11 19 -20 27 -20 8 0 15 -7 15 -15 0 -8 11 -17 25 -21 14 -3 25 -12 25
-20 0 -8 6 -14 14 -14 12 0 45 -25 91 -70 12 -11 25 -20 30 -20 6 0 16 -9 23
-20 7 -11 8 -20 3 -20 -5 0 -15 -16 -21 -36 -7 -19 -18 -38 -26 -41 -8 -3 -14
-9 -14 -13 0 -16 -58 -70 -75 -70 -9 0 -19 -9 -22 -20 -3 -11 -10 -20 -15 -20
-5 0 -6 -9 -3 -20 5 -16 2 -20 -15 -20 -13 0 -24 -9 -30 -25 -5 -14 -14 -25
-19 -25 -5 0 -12 -9 -16 -20 -3 -10 -51 -64 -106 -119 -54 -54 -99 -102 -99
-107 0 -4 -36 -43 -80 -86 -44 -44 -80 -83 -80 -86 -1 -4 -19 -25 -40 -47 -22
-22 -40 -43 -40 -47 0 -3 -15 -21 -32 -39 -21 -20 -28 -34 -20 -37 6 -2 12 -8
12 -13 0 -14 -26 -10 -40 6 -7 8 -23 15 -36 15 -12 0 -29 7 -38 15 -8 8 -19
15 -25 15 -6 0 -41 15 -78 34 -38 19 -75 37 -83 40 -8 3 -22 10 -30 16 -8 5
-40 20 -72 34 -31 14 -59 30 -63 35 -3 6 -17 11 -29 11 -13 0 -29 7 -36 15 -7
8 -19 15 -26 15 -8 0 -31 9 -51 20 -21 11 -43 20 -49 20 -6 0 -17 7 -24 15 -7
8 -23 15 -36 15 -13 0 -24 3 -24 8 0 6 -44 29 -120 61 -14 6 -32 15 -40 20 -8
5 -22 12 -30 15 -8 3 -22 10 -30 15 -8 5 -26 14 -40 20 -14 6 -33 15 -42 21
-10 5 -26 15 -35 20 -10 6 -25 13 -33 16 -26 10 -34 14 -71 37 -20 12 -63 37
-95 56 -33 19 -91 67 -130 106 l-71 71 -2 60 c-1 48 2 66 19 86 11 14 20 33
20 41 0 19 189 217 206 217 7 0 17 6 21 13 10 15 69 57 81 57 5 0 15 7 22 15
7 8 37 27 69 42 31 16 60 34 64 41 4 6 16 12 26 12 10 0 28 9 41 20 13 11 35
20 50 20 15 0 33 7 40 15 7 8 23 15 35 15 12 0 34 9 48 20 14 11 40 20 59 20
18 1 44 7 58 15 35 20 287 21 315 1z m6502 -63 c3 -7 -8 -18 -24 -25 -15 -7
-44 -22 -63 -34 -47 -29 -168 -94 -435 -234 -33 -17 -78 -42 -100 -55 -22 -12
-67 -37 -100 -54 -33 -17 -76 -40 -95 -52 -19 -12 -57 -33 -85 -48 -27 -15
-61 -34 -75 -43 -94 -58 -251 -148 -259 -148 -5 0 -14 -7 -21 -14 -11 -14 -89
-56 -103 -56 -4 0 -16 -9 -27 -20 -21 -21 -50 -27 -50 -10 0 6 -7 10 -15 10
-8 0 -15 7 -15 15 0 8 -10 17 -23 20 -27 7 -52 41 -37 50 10 6 -25 66 -42 73
-4 2 -8 12 -8 23 0 10 -4 19 -10 19 -5 0 -10 9 -10 20 0 11 -5 20 -11 20 -8 0
-8 5 1 15 7 8 18 15 26 15 7 0 19 6 27 14 8 8 29 22 48 30 19 9 48 25 64 36
17 11 41 24 55 30 14 5 32 14 40 19 32 20 201 101 211 101 6 0 22 9 36 20 14
11 33 20 42 20 10 0 26 7 37 15 10 8 26 15 34 15 9 0 33 9 55 20 22 11 45 20
52 20 7 0 30 9 50 20 21 11 47 20 58 20 11 0 28 7 38 15 11 7 38 17 60 20 23
4 50 11 60 17 26 14 258 69 367 87 74 12 243 8 247 -6z m-5430 -575 c-3 -8 -6
-5 -6 6 -1 11 2 17 5 13 3 -3 4 -12 1 -19z m3816 1 c23 -26 16 -34 -15 -17
-12 7 -25 14 -27 15 -5 3 10 23 17 23 4 0 16 -9 25 -21z m177 -245 c0 -8 -7
-14 -15 -14 -8 0 -15 9 -15 20 0 13 5 18 15 14 8 -4 15 -12 15 -20z m-55 -34
c-3 -5 -10 -10 -16 -10 -5 0 -9 5 -9 10 0 6 7 10 16 10 8 0 12 -4 9 -10z
m-5704 -5007 c1 -16 1 -31 0 -35 0 -5 4 -8 9 -8 6 0 10 -7 10 -15 0 -21 16
-19 25 3 6 15 8 14 16 -6 5 -12 19 -26 31 -31 13 -5 39 -23 58 -41 19 -17 47
-38 63 -46 15 -8 27 -20 27 -27 0 -7 17 -19 38 -26 20 -8 39 -17 42 -21 3 -3
34 -26 70 -50 36 -24 67 -46 70 -49 7 -8 46 -30 92 -53 20 -10 40 -22 43 -28
3 -5 12 -10 20 -10 7 0 27 -13 45 -30 18 -16 38 -30 45 -30 7 0 15 -3 17 -7 2
-5 28 -21 58 -37 30 -16 62 -35 71 -42 8 -8 21 -14 27 -14 16 0 81 -43 82 -55
0 -5 14 -23 30 -39 17 -16 30 -33 30 -38 0 -4 5 -8 10 -8 15 0 83 -72 97 -103
7 -15 17 -27 23 -27 17 0 11 -30 -12 -63 -12 -18 -26 -33 -30 -35 -4 -2 -8 -9
-8 -16 0 -17 -83 -105 -140 -147 -159 -120 -368 -144 -545 -62 -165 75 -320
262 -402 483 -70 189 -93 436 -56 610 14 67 19 98 22 123 2 20 21 3 22 -20z
m1189 -837 c0 -3 -4 -8 -10 -11 -5 -3 -10 -1 -10 4 0 6 5 11 10 11 6 0 10 -2
10 -4z"/>
</g>
</svg>
